<?xml version="1.0" encoding="UTF-8" standalone="no"?><!DOCTYPE svg PUBLIC "-//W3C//DTD SVG 1.1//EN" "http://www.w3.org/Graphics/SVG/1.1/DTD/svg11.dtd"><svg width="100%" height="100%" viewBox="0 0 150 184" version="1.1" xmlns="http://www.w3.org/2000/svg" xmlns:xlink="http://www.w3.org/1999/xlink" xml:space="preserve" xmlns:serif="http://www.serif.com/" style="fill-rule:evenodd;clip-rule:evenodd;stroke-linejoin:round;stroke-miterlimit:2;"><path d="M91.529,22.988c-0.087,-0 -0.179,-0.005 -0.271,-0.017c-1.141,-0.146 -1.945,-1.192 -1.796,-2.333c0.08,-0.621 0.121,-1.25 0.121,-1.888c0,-8.042 -6.541,-14.583 -14.583,-14.583c-8.042,-0 -14.583,6.541 -14.583,14.583c-0,0.613 0.037,1.217 0.108,1.813c0.142,1.141 -0.671,2.179 -1.812,2.32c-1.171,0.142 -2.18,-0.67 -2.321,-1.812c-0.092,-0.758 -0.142,-1.538 -0.142,-2.321c0,-10.337 8.413,-18.75 18.75,-18.75c10.338,0 18.75,8.413 18.75,18.75c0,0.821 -0.054,1.629 -0.158,2.425c-0.134,1.046 -1.029,1.813 -2.063,1.813Z" style="fill:#cbcbcb;fill-rule:nonzero;"/><path d="M75,183.333c-8.892,0 -17.054,-5.212 -20.796,-13.279c-0.483,-1.041 -0.029,-2.283 1.013,-2.767c1.041,-0.479 2.287,-0.029 2.766,1.013c3.063,6.604 9.742,10.867 17.017,10.867c7.233,-0 13.7,-4.046 16.871,-10.554c0.504,-1.034 1.754,-1.467 2.783,-0.963c1.038,0.504 1.467,1.75 0.963,2.783c-3.875,7.959 -11.775,12.9 -20.617,12.9Z" style="fill:#cbcbcb;fill-rule:nonzero;"/><path d="M13.546,137.533c-0.171,0 -0.338,-0.021 -0.508,-0.062c-1.117,-0.279 -1.796,-1.409 -1.513,-2.525l7.246,-28.904c1.104,-4.4 1.287,-9.313 0.55,-14.604c-0.379,-2.705 -0.571,-5.425 -0.571,-8.105c0,-32.166 25.233,-58.333 56.25,-58.333c31.017,0 56.25,26.167 56.25,58.333c0,2.68 -0.192,5.4 -0.567,8.1c-0.737,5.292 -0.554,10.205 0.55,14.605l7.204,28.737c0.28,1.117 -0.395,2.25 -1.512,2.525c-1.108,0.275 -2.25,-0.396 -2.525,-1.513l-7.204,-28.737c-1.234,-4.921 -1.45,-10.371 -0.634,-16.196c0.346,-2.504 0.521,-5.037 0.521,-7.521c0,-29.866 -23.362,-54.166 -52.083,-54.166c-28.721,-0 -52.083,24.3 -52.083,54.166c-0,2.484 0.175,5.017 0.525,7.521c0.812,5.825 0.6,11.275 -0.634,16.196l-7.246,28.904c-0.233,0.946 -1.083,1.579 -2.016,1.579Z" style="fill:#cbcbcb;fill-rule:nonzero;"/><g><g><path d="M139.583,162.5l-129.166,0c-5.742,0 -10.417,-4.675 -10.417,-10.417c-0,-5.741 4.675,-10.416 10.417,-10.416l129.166,-0c5.742,-0 10.417,4.675 10.417,10.416c0,5.742 -4.675,10.417 -10.417,10.417Zm-129.166,-16.667c-3.446,0 -6.25,2.805 -6.25,6.25c-0,3.446 2.804,6.25 6.25,6.25l129.166,0c3.446,0 6.25,-2.804 6.25,-6.25c0,-3.445 -2.804,-6.25 -6.25,-6.25l-129.166,0Z" style="fill:#cbcbcb;fill-rule:nonzero;"/></g></g></svg>