<?xml version="1.0" encoding="UTF-8" standalone="no"?><!DOCTYPE svg PUBLIC "-//W3C//DTD SVG 1.1//EN" "http://www.w3.org/Graphics/SVG/1.1/DTD/svg11.dtd"><svg width="100%" height="100%" viewBox="0 0 2686 1977" version="1.1" xmlns="http://www.w3.org/2000/svg" xmlns:xlink="http://www.w3.org/1999/xlink" xml:space="preserve" xmlns:serif="http://www.serif.com/" style="fill-rule:evenodd;clip-rule:evenodd;stroke-miterlimit:2;"><path d="M300.275,514.054l2080.7,0" style="fill:none;stroke:#d4cdca;stroke-width:8.2px;"/><path d="M2353.81,1665.01l-2026.36,-0c-15.012,-0 -27.175,-12.167 -27.175,-27.171l0,-1233.01c0,-15.004 12.163,-27.171 27.175,-27.171l2026.36,0c15.004,0 27.171,12.167 27.171,27.171l-0,1233.01c-0,15.004 -12.167,27.171 -27.171,27.171Z" style="fill:none;stroke:#d4cdca;stroke-width:8.2px;"/><path d="M437.405,447.25c-0,10.508 -8.525,19.029 -19.034,19.029c-10.512,0 -19.033,-8.521 -19.033,-19.029c-0,-10.512 8.521,-19.033 19.033,-19.033c10.509,-0 19.034,8.521 19.034,19.033Z" style="fill:#f7a59c;fill-rule:nonzero;"/><path d="M511.371,447.25c0,10.508 -8.521,19.029 -19.033,19.029c-10.513,0 -19.029,-8.521 -19.029,-19.029c-0,-10.512 8.516,-19.033 19.029,-19.033c10.512,-0 19.033,8.521 19.033,19.033Z" style="fill:#dbc357;fill-rule:nonzero;"/><path d="M585.342,447.25c0,10.508 -8.525,19.029 -19.033,19.029c-10.513,0 -19.034,-8.521 -19.034,-19.029c0,-10.512 8.521,-19.033 19.034,-19.033c10.508,-0 19.033,8.521 19.033,19.033Z" style="fill:#11867b;fill-rule:nonzero;"/><path d="M2651.28,973.463l-489.005,-0c-13.787,-0 -24.962,-11.175 -24.962,-24.963l-0,-452.254c-0,-13.788 11.175,-24.963 24.962,-24.963l489.005,0c13.787,0 24.966,11.175 24.966,24.963l0,452.254c0,13.788 -11.179,24.963 -24.966,24.963Z" style="fill:#e5e3e3;fill-rule:nonzero;"/><path d="M2651.28,973.463l-489.005,-0c-13.787,-0 -24.962,-11.175 -24.962,-24.963l-0,-452.254c-0,-13.788 11.175,-24.963 24.962,-24.963l489.005,0c13.787,0 24.966,11.175 24.966,24.963l0,452.254c0,13.788 -11.179,24.963 -24.966,24.963Z" style="fill:none;stroke:#d4cdca;stroke-width:8.2px;"/><path d="M2280.5,842.829l254.158,0c13.859,0 25.096,-11.233 25.096,-25.091l0,-208.296c0,-13.854 -11.237,-25.088 -25.096,-25.088l-254.158,0c-13.854,0 -25.087,11.234 -25.087,25.088l-0,208.296c-0,13.858 11.233,25.091 25.087,25.091Z" style="fill:#b077b3;fill-rule:nonzero;"/><path d="M2477,756.567l-140.445,-0l-0,-94.188l140.445,0l0,94.188Z" style="fill:none;stroke:#fff;stroke-width:6.86px;stroke-linecap:round;stroke-linejoin:round;"/><path d="M2336.55,662.379l70.224,55.342l70.221,-55.342" style="fill:none;stroke:#fff;stroke-width:6.86px;stroke-linecap:round;stroke-linejoin:round;"/><path d="M499.33,1352.17l-466.363,-0c-13.146,-0 -23.8,-10.659 -23.8,-23.809l0,-406.595c0,-13.15 10.654,-23.809 23.8,-23.809l466.363,0c13.145,0 23.808,10.659 23.808,23.809l-0,406.595c-0,13.15 -10.663,23.809 -23.808,23.809Z" style="fill:#e5e3e3;fill-rule:nonzero;"/><path d="M499.33,1352.17l-466.363,-0c-13.146,-0 -23.8,-10.659 -23.8,-23.809l0,-406.595c0,-13.15 10.654,-23.809 23.8,-23.809l466.363,0c13.145,0 23.808,10.659 23.808,23.809l-0,406.595c-0,13.15 -10.663,23.809 -23.808,23.809Z" style="fill:none;stroke:#d4cdca;stroke-width:8.2px;"/><path d="M385.875,1264.66l-241.87,0c-15.28,0 -27.667,-12.383 -27.667,-27.662l-0,-233.588c-0,-15.279 12.387,-27.662 27.667,-27.662l241.87,-0c15.28,-0 27.667,12.383 27.667,27.662l0,233.588c0,15.279 -12.387,27.662 -27.667,27.662Z" style="fill:#f7a59c;fill-rule:nonzero;"/><path d="M342.4,1117.99l-36.12,-0c-0.196,-10.859 -1.609,-21.721 -4.296,-32.575l30.671,-0c5.537,9.716 8.987,20.779 9.745,32.575Zm-9.745,42.404l-31.642,-0c2.858,-10.863 4.587,-21.717 5.117,-32.579l36.27,-0c-0.758,11.8 -4.204,22.862 -9.745,32.579Zm-44.9,35.366c4.12,-8.512 7.583,-17.025 10.358,-25.541l27.867,-0c-9.671,12.087 -22.959,21.146 -38.225,25.541Zm-21,2.95c-3.367,0 -6.684,-0.22 -9.93,-0.645c-4.633,-9.284 -8.579,-18.563 -11.754,-27.846l43.363,-0c-3.175,9.283 -7.121,18.562 -11.746,27.846c-3.254,0.425 -6.567,0.645 -9.933,0.645Zm-59.225,-28.491l27.866,-0c2.775,8.512 6.238,17.029 10.354,25.541c-15.262,-4.395 -28.554,-13.454 -38.22,-25.541Zm-6.675,-9.825c-5.542,-9.717 -8.992,-20.779 -9.746,-32.579l36.271,-0c0.529,10.858 2.254,21.716 5.116,32.579l-31.641,-0Zm-0,-74.979l30.67,-0c-2.687,10.854 -4.1,21.716 -4.295,32.575l-36.121,-0c0.754,-11.796 4.204,-22.859 9.746,-32.575Zm43.866,-35.063c-4.266,8.408 -7.725,16.825 -10.412,25.233l-26.779,0c9.45,-11.812 22.358,-20.733 37.191,-25.233Zm22.034,-3.258c4.041,-0 8.004,0.321 11.87,0.925c5.15,9.191 9.184,18.379 12.184,27.566l-48.109,0c3,-9.187 7.034,-18.375 12.184,-27.566c3.866,-0.604 7.833,-0.925 11.871,-0.925Zm30.525,80.721c-0.742,10.858 -2.709,21.716 -5.775,32.579l-49.505,-0c-3.062,-10.859 -5.029,-21.717 -5.77,-32.579l61.05,-0Zm-61.38,-9.825c0.013,-10.859 1.292,-21.721 3.98,-32.575l53.75,-0c2.687,10.854 3.966,21.716 3.979,32.575l-61.709,-0Zm90.08,-42.405l-26.78,0c-2.687,-8.408 -6.145,-16.825 -10.412,-25.233c14.833,4.5 27.742,13.421 37.192,25.233Zm-118.642,-12.1c-32.633,32.634 -32.633,86.2 -0,118.838c32.633,32.633 86.2,32.633 118.833,-0c32.634,-32.638 32.634,-86.204 0,-118.838c-32.633,-32.633 -86.2,-32.633 -118.833,0Z" style="fill:#fff;fill-rule:nonzero;"/><path d="M471.534,258.867l-422.496,-0c-8.725,-0 -15.804,-7.079 -15.804,-15.804c-0,-8.73 7.079,-15.805 15.804,-15.805l422.496,0c8.729,0 15.804,7.075 15.804,15.805c-0,8.725 -7.075,15.804 -15.804,15.804Z" style="fill:#b077b3;fill-rule:nonzero;"/><path d="M2668.5,1290.88l-205.062,0c-8.725,0 -15.805,-7.075 -15.805,-15.804c0,-8.725 7.08,-15.804 15.805,-15.804l205.062,-0c8.729,-0 15.804,7.079 15.804,15.804c0,8.729 -7.075,15.804 -15.804,15.804Z" style="fill:#4ec4d1;fill-rule:nonzero;"/><path d="M2524.88,1473.7l-25.054,0c-6.583,0 -11.925,-5.337 -11.925,-11.921l0,-23.525c0,-6.583 5.342,-11.916 11.925,-11.916l25.054,-0c6.588,-0 11.925,5.333 11.925,11.916l0,23.525c0,6.584 -5.337,11.921 -11.925,11.921Z" style="fill:#b077b3;fill-rule:nonzero;"/><path d="M149.68,1583.19l-25.059,-0c-6.587,-0 -11.921,-5.338 -11.921,-11.921l0,-23.521c0,-6.583 5.334,-11.925 11.921,-11.925l25.059,0c6.583,0 11.92,5.342 11.92,11.925l0,23.521c0,6.583 -5.337,11.921 -11.92,11.921Z" style="fill:#f7a59c;fill-rule:nonzero;"/><path d="M2067.49,242.542l-417.012,-0c-6.934,-0 -12.555,-5.621 -12.555,-12.55l0,-101.817c0,-6.933 5.621,-12.55 12.555,-12.55l417.012,0c6.933,0 12.55,5.617 12.55,12.55l-0,101.817c-0,6.929 -5.617,12.55 -12.55,12.55Z" style="fill:#f7a59c;fill-rule:nonzero;"/><path d="M1698.15,160.846l296.575,-0" style="fill:none;stroke:#fff;stroke-width:4.92px;"/><path d="M1698.15,191.287l120.804,0" style="fill:none;stroke:#fff;stroke-width:4.92px;"/><path d="M1686.08,228.183l-0,49.459l62.208,-49.459l-62.208,0Z" style="fill:#f7a59c;fill-rule:nonzero;"/><path d="M1042.94,250.092l-201.867,-0c-19.608,-0 -35.5,-15.896 -35.5,-35.504l0,-187.675c0,-14.863 12.05,-26.913 26.913,-26.913l210.454,-0c14.862,-0 26.912,12.05 26.912,26.913l0,196.262c0,14.867 -12.05,26.917 -26.912,26.917Z" style="fill:#4ec4d1;fill-rule:nonzero;"/><path d="M993.205,157.513c-1.075,1.075 -2.15,2.145 -3.226,3.224c-1.883,1.613 -3.491,3.492 -5.374,5.371c-2.688,2.688 -5.646,4.034 -9.676,4.034l-1.341,-0c-8.063,-0.538 -15.588,-3.763 -20.963,-6.45c-15.316,-7.525 -28.754,-18.005 -40.037,-31.442c-9.138,-11.017 -15.317,-21.496 -19.621,-32.512c-2.683,-6.45 -3.762,-11.559 -3.221,-16.663c0.267,-2.954 1.342,-5.642 3.763,-7.792l9.137,-9.137c0.804,-0.809 2.146,-1.883 3.759,-1.883c1.612,-0 2.687,0.808 3.762,1.883c1.613,1.612 3.225,3.225 4.838,4.837c0.808,0.805 1.612,1.879 2.687,2.684l7.525,7.525c0.804,0.808 1.879,2.421 1.879,3.762c0,1.617 -1.075,2.958 -1.879,3.763c-0.808,0.804 -1.612,1.612 -2.421,2.421c-2.416,2.416 -4.567,4.566 -6.716,6.716l-0.267,0.267c-2.688,2.687 -2.15,5.108 -1.613,6.721l0,0.266c1.88,4.838 4.838,9.138 8.867,14.513c7.525,9.404 15.588,16.662 24.454,22.304c1.075,0.808 2.417,1.342 3.492,1.879c1.075,0.542 1.883,0.809 2.687,1.346l0.271,0.271c2.684,1.342 5.371,0.804 7.525,-1.346l9.404,-9.404c0.805,-0.808 2.15,-1.883 3.763,-1.883c1.346,-0 2.687,1.075 3.492,1.883l15.05,15.046c2.42,2.421 2.42,5.108 -0,7.796Zm6.179,-13.975l-15.046,-15.046c-2.688,-2.959 -6.183,-4.571 -9.675,-4.571c-3.496,-0 -6.988,1.612 -9.675,4.3l-8.6,8.6c-0.538,-0.271 -1.075,-0.538 -1.613,-0.808c-1.075,-0.538 -1.879,-0.805 -2.687,-1.342c-8.063,-5.108 -15.317,-11.825 -22.304,-20.425c-3.225,-4.029 -5.642,-7.792 -6.988,-11.017c2.154,-1.883 4.034,-4.033 5.913,-5.912c0.808,-0.805 1.612,-1.613 2.421,-2.417c2.954,-2.958 4.566,-6.45 4.566,-9.946c0,-3.492 -1.612,-6.983 -4.566,-9.941l-7.525,-7.525c-0.809,-0.805 -1.613,-1.613 -2.421,-2.688c-1.609,-1.612 -3.492,-3.492 -5.104,-5.104c-2.688,-2.688 -6.18,-4.3 -9.675,-4.3c-3.492,-0 -6.717,1.342 -9.671,4.3l-9.409,9.404c-3.491,3.492 -5.641,8.063 -6.179,13.167c-0.537,8.062 1.613,15.587 3.492,20.425c4.3,12.358 11.016,23.379 20.962,35.204c12.092,14.242 26.334,25.529 42.996,33.587c6.179,2.959 14.779,6.45 24.188,7.259l1.879,-0c6.45,-0 11.825,-2.417 16.121,-6.988l0.271,-0.271c1.345,-1.608 2.954,-3.225 4.837,-4.833c1.075,-1.079 2.421,-2.421 3.492,-3.496c5.645,-5.912 5.645,-13.975 -0,-19.616Z" style="fill:#fff;fill-rule:nonzero;"/><g><clipPath id="_clip1"><rect x="491.938" y="275.462" width="1913.64" height="1386.19"/></clipPath><g clip-path="url(#_clip1)"><path d="M1921.06,1196.99l-152.092,-20.25l1.187,15.104l-130.037,17.312c-0,0 -83.817,210.292 -9.946,672.771l105.779,0l38.067,-468.954l13.525,-0l36.871,468.954l105.779,0c73.871,-462.479 -9.133,-684.937 -9.133,-684.937Z" style="fill:#8a6e6d;fill-rule:nonzero;"/><path d="M1725.65,1412.97l110.358,-0" style="fill:none;stroke:#2a282e;stroke-width:5.14px;stroke-linecap:round;stroke-linejoin:round;"/><path d="M2009.87,975.15c-13.012,-20.771 -86.104,-20.037 -89.966,-20.487c-19.755,-2.317 12.674,154.916 53.779,292.362c7.883,26.35 36.875,40.075 62.195,29.338c0.276,-0.117 0.546,-0.234 0.821,-0.346c20.034,-8.488 31.43,-29.754 27.4,-51.134c-19.55,-103.708 -39.183,-225.72 -54.229,-249.733Z" style="fill:#f7a59c;fill-rule:nonzero;"/><path d="M2027.29,1032l-93.325,36.213l-8.746,-44.275l96.634,-24.104l5.437,32.166Z" style="fill:#ec8c87;fill-rule:nonzero;"/><path d="M2044.92,1120.58c-0,0 -44.208,59.371 -42.1,56.642c2.104,-2.729 34.667,-95.946 34.667,-95.946l7.433,39.304Z" style="fill:#ec8c87;fill-rule:nonzero;"/><path d="M2108.13,1040.78l-126.717,164.18c-16.638,21.554 -11.325,52.72 11.516,67.549c22.8,14.801 53.38,7.021 66.33,-16.879l105.479,-194.604l-56.608,-20.246Z" style="fill:#f7a59c;fill-rule:nonzero;"/><path d="M2140.92,1082.94c-27.471,-8.875 -42.546,-38.334 -33.671,-65.809c8.875,-27.47 38.338,-42.541 65.809,-33.67c27.47,8.875 42.546,38.337 33.671,65.808c-8.875,27.475 -38.338,42.546 -65.809,33.671Z" style="fill:#f7a59c;fill-rule:nonzero;"/><path d="M2195.11,1001.78c-0,0 14.304,-14.85 -11.075,-25.258c-25.376,-10.408 -56.75,-8.021 -76.78,40.612l87.855,-15.354Z" style="fill:#f7a59c;fill-rule:nonzero;"/><path d="M2221.39,898.025l53.058,23.004c2.95,1.279 4.025,4.779 2.396,7.817l-69.796,130.379c-1.625,3.033 -5.337,4.463 -8.287,3.179l-53.058,-23c-2.955,-1.283 -4.025,-4.783 -2.405,-7.816l69.8,-130.38c1.63,-3.037 5.342,-4.462 8.292,-3.183Z" style="fill:#403462;fill-rule:nonzero;"/><path d="M2216.33,895.717l53.055,23.004c2.954,1.283 4.029,4.779 2.4,7.821l-69.8,130.371c-1.621,3.037 -5.334,4.462 -8.288,3.183l-53.054,-23.004c-2.954,-1.279 -4.029,-4.775 -2.4,-7.817l69.796,-130.375c1.625,-3.037 5.337,-4.462 8.291,-3.183Z" style="fill:#312349;fill-rule:nonzero;"/><path d="M2210.34,908.983l46.621,20.209l-56.888,106.258l-46.616,-20.208l56.883,-106.259Z" style="fill:#dddcdb;fill-rule:nonzero;"/><path d="M2256.96,929.192l-103.504,86.05l56.883,-106.259l46.621,20.209Z" style="fill:#fff;fill-rule:nonzero;"/><path d="M2168.8,972.192c0,-0 11.813,2.304 22.475,8.346c4.7,2.658 7.104,8.079 5.804,13.32c-1.191,4.78 -5.191,8.33 -10.075,8.946l-27.583,3.479c0,0 -14.396,24.809 -33.196,27.592l17.246,-43.554l25.329,-18.129Z" style="fill:#f7a59c;fill-rule:nonzero;"/><path d="M1816.53,768.4c-3.046,-0.021 195.608,27.488 228.387,253.979l-103.083,15.792l-20.779,170.983l-287.571,0l-57.092,-315.912c0,-0 63.712,-91.309 182.004,-124.842l58.134,0Z" style="fill:#4ec4d1;fill-rule:nonzero;"/><path d="M1941.83,1038.17l8.946,-98.892" style="fill:none;stroke:#2a282e;stroke-width:5.14px;stroke-linecap:round;stroke-linejoin:round;"/><path d="M1835.41,771.637l-0,-78.67l-92.192,-0l0,79.596c-4.717,1.408 -12.575,4.249 -24.767,10.041l71.9,42.834l73.513,-42.834c-0,0 -11.671,-6.787 -28.454,-10.967Z" style="fill:#f7a59c;fill-rule:nonzero;"/><path d="M1742.36,702.575c-0,0 16.554,43.967 60.754,40.171c40.625,-3.488 34.158,-64.417 34.158,-64.417l-94.912,24.246Z" style="fill:#2a282e;fill-rule:nonzero;"/><path d="M1702.15,644.108c-14.45,13.109 -46.763,-36.608 -32.8,-50.566c13.962,-13.954 24.616,7.941 24.616,7.941l6.234,14.842l4.7,20.096l1.116,5.267l-3.866,2.42Z" style="fill:#ec8c87;fill-rule:nonzero;"/><path d="M1676.1,611.154c0,0 10.938,-4.921 20.655,10.933" style="fill:none;stroke:#2a282e;stroke-width:4.14px;stroke-linecap:round;stroke-linejoin:round;"/><path d="M1873.04,642.6c13.292,14.283 49.692,-32.521 36.954,-47.608c-12.725,-15.092 -25.191,5.829 -25.191,5.829l-7.467,14.258l-6.388,19.629l-1.558,5.15l3.65,2.742Z" style="fill:#ec8c87;fill-rule:nonzero;"/><path d="M1901.79,611.967c-0,-0 -10.479,-5.829 -21.508,9.15" style="fill:none;stroke:#2a282e;stroke-width:4.14px;stroke-linecap:round;stroke-linejoin:round;"/><path d="M1676.81,546.121c-0,65.808 50.175,97.012 112.071,97.012c61.891,0 112.062,-31.204 112.062,-97.012c0,-65.813 -50.171,-110.583 -112.062,-110.583c-61.896,-0 -112.071,44.77 -112.071,110.583Z" style="fill:#2a282e;fill-rule:nonzero;"/><path d="M1692.04,550.696c0,40.4 5.708,75.262 11.404,100.008c5.579,24.225 21.275,41.154 43.463,54.779l4.037,2.484c23.475,14.416 53.8,14.754 77.634,0.858c24.037,-14.012 40.866,-32.487 46.045,-58.483c9.421,-47.279 10.45,-99.646 10.45,-99.646c0,-0 8.963,-101.983 -95.137,-100.004c-104.109,1.983 -97.896,100.004 -97.896,100.004Z" style="fill:#f7a59c;fill-rule:nonzero;"/><path d="M1782.24,608.9l0,14.113c0,0.833 0.158,1.637 0.454,2.37c1.158,2.884 4.488,4.267 7.496,3.467l6.471,-1.717" style="fill:none;stroke:#2a282e;stroke-width:5.13px;stroke-linecap:round;stroke-linejoin:round;"/><path d="M1765.69,554.175l-51.738,12.125c0,0 2.355,-13.167 23.517,-17.954c21.167,-4.783 28.221,5.829 28.221,5.829Z" style="fill:#2a282e;fill-rule:nonzero;"/><path d="M1811.61,554.175l49.954,12.125c-0,0 -2.271,-13.167 -22.708,-17.954c-20.434,-4.783 -27.246,5.829 -27.246,5.829Z" style="fill:#2a282e;fill-rule:nonzero;"/><path d="M1754.76,592.179c-0,4.804 -3.905,8.7 -8.721,8.7c-4.821,0 -8.725,-3.896 -8.725,-8.7c-0,-4.808 3.904,-8.704 8.725,-8.704c4.816,-0 8.721,3.896 8.721,8.704Z" style="fill:#2a282e;fill-rule:nonzero;"/><path d="M1837.48,592.179c0,4.804 -3.908,8.7 -8.725,8.7c-4.82,0 -8.729,-3.896 -8.729,-8.7c0,-4.808 3.909,-8.704 8.729,-8.704c4.817,-0 8.725,3.896 8.725,8.704Z" style="fill:#2a282e;fill-rule:nonzero;"/><path d="M1754.76,645.275l67.287,-0c0,-0 -29.821,36.279 -67.287,-0Z" style="fill:#fff;fill-rule:nonzero;"/><path d="M1779.46,595.558c-0,20.492 -16.608,37.105 -37.1,37.105c-20.492,-0 -37.104,-16.613 -37.104,-37.105c-0,-20.491 16.612,-37.104 37.104,-37.104c20.492,0 37.1,16.613 37.1,37.104Z" style="fill:none;stroke:#b077b3;stroke-width:5.59px;"/><path d="M1870.61,595.558c-0,20.492 -16.608,37.105 -37.1,37.105c-20.492,-0 -37.108,-16.613 -37.108,-37.105c-0,-20.491 16.616,-37.104 37.108,-37.104c20.492,0 37.1,16.613 37.1,37.104Z" style="fill:none;stroke:#b077b3;stroke-width:5.59px;"/><path d="M1779.46,595.558c-0,0 8.787,-8.204 16.942,0" style="fill:none;stroke:#b077b3;stroke-width:5.59px;"/><path d="M1705.26,595.558l-11.688,-0.295" style="fill:none;stroke:#b077b3;stroke-width:5.59px;"/><path d="M1870.61,595.558l11.758,-0.295" style="fill:none;stroke:#b077b3;stroke-width:5.59px;"/><path d="M1883.73,584.508c-0,0 -41.621,-56.266 -32.017,-113.27c0,-0 30.892,15.545 38.938,55.67c8.045,40.13 -6.921,57.6 -6.921,57.6Z" style="fill:#2a282e;fill-rule:nonzero;"/><path d="M1691.97,588.321c0,-0 48.354,-63.908 38.75,-120.913c0,0 -33.537,19.375 -41.583,59.5c-8.042,40.13 2.833,61.413 2.833,61.413Z" style="fill:#2a282e;fill-rule:nonzero;"/><path d="M1880.25,493.688c0,-0 -53.446,58.508 -199.666,48.491c-0,0 22.391,-85.854 93.254,-95c-0,0 81.821,-9.771 106.412,46.509Z" style="fill:#2a282e;fill-rule:nonzero;"/><path d="M1946.31,425.288c-0,38.558 -31.259,69.816 -69.817,69.816c-38.558,0 -69.817,-31.258 -69.817,-69.816c0,-38.555 31.259,-69.813 69.817,-69.813c38.558,-0 69.817,31.258 69.817,69.813Z" style="fill:#2a282e;fill-rule:nonzero;"/><path d="M1024.22,1196.83l-130.033,-17.316l1.188,-15.1l-152.092,20.25c-0,-0 -83.004,222.454 -9.133,684.937l105.779,0l36.871,-468.954l13.52,-0l38.071,468.954l105.775,0c73.875,-462.483 -9.946,-672.771 -9.946,-672.771Z" style="fill:#2a282e;fill-rule:nonzero;"/><path d="M1013.86,564.146c-17.6,-20.708 -31.692,-44.859 -43.667,-78.754c-12.858,-36.388 -54.954,-21.596 -54.954,-21.596c-0,-0 -35.08,-45.129 -87.867,-29.408c-52.787,15.716 -71.129,53.279 -72.204,97.937c-1.079,44.663 -36.204,51.646 -63.254,103.308c-47.754,91.209 32.646,168.034 178.996,146.721l0.195,-1.421c14.413,4.375 32.075,6.288 53.638,5.009c175.817,-10.442 158.85,-139.759 89.117,-221.796Z" style="fill:#2a282e;fill-rule:nonzero;"/><path d="M956.296,631.783c14.45,13.105 46.758,-36.608 32.796,-50.566c-13.958,-13.959 -24.612,7.941 -24.612,7.941l-6.234,14.838l-4.704,20.1l-1.117,5.262l3.871,2.425Z" style="fill:#ec8c87;fill-rule:nonzero;"/><path d="M982.346,598.825c0,0 -10.937,-4.917 -20.658,10.938" style="fill:none;stroke:#2a282e;stroke-width:4.14px;stroke-linecap:round;stroke-linejoin:round;"/><path d="M785.405,630.275c-13.292,14.283 -49.692,-32.521 -36.959,-47.608c12.734,-15.092 25.196,5.825 25.196,5.825l7.467,14.262l6.387,19.629l1.559,5.15l-3.65,2.742Z" style="fill:#ec8c87;fill-rule:nonzero;"/><path d="M756.659,599.642c-0,-0 10.483,-5.829 21.508,9.15" style="fill:none;stroke:#2a282e;stroke-width:4.14px;stroke-linecap:round;stroke-linejoin:round;"/><path d="M981.638,533.792c-0,65.808 -50.175,97.016 -112.067,97.016c-61.891,0 -112.066,-31.208 -112.066,-97.016c-0,-65.809 50.175,-110.579 112.066,-110.579c61.892,-0 112.067,44.77 112.067,110.579Z" style="fill:#2a282e;fill-rule:nonzero;"/><rect x="823.042" y="680.642" width="92.192" height="119.379" style="fill:#f7a59c;fill-rule:nonzero;"/><path d="M809.588,673.196c-0,-0 25.662,51.217 57.233,59.212c8.434,2.138 17.442,1.405 25.575,-1.475c11.884,-4.216 26.95,-21.933 29.513,-41.533l1.187,-11.2c0,0 -56.179,30.588 -113.508,-5.004Z" style="fill:#2a282e;fill-rule:nonzero;"/><path d="M966.405,538.371c-0,40.4 -5.705,75.262 -11.405,100.004c-5.579,24.225 -21.275,41.154 -43.462,54.783l-4.038,2.48c-23.475,14.42 -53.804,14.754 -77.633,0.862c-24.037,-14.013 -40.867,-32.492 -46.046,-58.483c-9.421,-47.279 -10.45,-99.646 -10.45,-99.646c0,-0 -8.962,-101.988 95.142,-100.004c104.104,1.979 97.892,100.004 97.892,100.004Z" style="fill:#f7a59c;fill-rule:nonzero;"/><path d="M862.617,602.096l0,8.383c0,0.833 0.163,1.634 0.454,2.367c1.159,2.875 4.488,4.25 7.496,3.454l6.475,-1.708" style="fill:none;stroke:#2a282e;stroke-width:5.12px;stroke-linecap:round;stroke-linejoin:round;"/><path d="M884.309,546.813l55.383,13.108c-0,-0 -2.517,-14.234 -25.175,-19.408c-22.658,-5.171 -30.208,6.3 -30.208,6.3Z" style="fill:#2a282e;fill-rule:nonzero;"/><path d="M855.225,546.813l-56.095,13.108c-0,-0 2.55,-14.234 25.5,-19.408c22.95,-5.171 30.595,6.3 30.595,6.3Z" style="fill:#2a282e;fill-rule:nonzero;"/><path d="M835.134,581.192c-0,4.787 -3.909,8.675 -8.725,8.675c-4.821,-0 -8.729,-3.888 -8.729,-8.675c-0,-4.792 3.908,-8.679 8.729,-8.679c4.816,-0 8.725,3.887 8.725,8.679Z" style="fill:#2a282e;fill-rule:nonzero;"/><path d="M917.85,581.192c0,4.787 -3.908,8.675 -8.725,8.675c-4.82,-0 -8.725,-3.888 -8.725,-8.675c0,-4.792 3.905,-8.679 8.725,-8.679c4.817,-0 8.725,3.887 8.725,8.679Z" style="fill:#2a282e;fill-rule:nonzero;"/><path d="M829.371,630.808l76.579,0c0,0 -5.404,21.042 -40.129,21.042c-26.446,0 -36.45,-21.042 -36.45,-21.042Z" style="fill:#fff;fill-rule:nonzero;"/><path d="M774.709,572.183c-0,0 41.625,-56.27 32.025,-113.275c-0,0 -30.896,15.546 -38.942,55.675c-8.042,40.125 6.917,57.6 6.917,57.6Z" style="fill:#2a282e;fill-rule:nonzero;"/><path d="M966.475,570.308c0,0 -48.35,-58.22 -38.746,-115.225c0,0 33.534,19.371 41.58,59.5c8.046,40.125 -2.834,55.725 -2.834,55.725Z" style="fill:#2a282e;fill-rule:nonzero;"/><path d="M778.2,481.363c0,-0 47.763,64.191 193.984,54.175c-0,-0 -16.704,-91.542 -87.571,-100.684c-0,0 -81.821,-9.771 -106.413,46.509Z" style="fill:#2a282e;fill-rule:nonzero;"/><path d="M644.913,1479.2c-2.129,3.342 121.7,-538.771 84.937,-530.575c-3.354,0.742 -67.741,6.725 -77.312,26.183c-27.738,56.4 -47.633,500.275 -47.633,500.275l40.008,4.117Z" style="fill:#f7a59c;fill-rule:nonzero;"/><path d="M604.905,1475.08c-0,0 -19.959,92.609 55.491,102.73c4.971,0.67 9.775,-2.267 11.413,-7.009l0.216,-0.629c1.805,-5.229 -0.816,-10.842 -5.87,-13.1c-12.3,-5.5 -31.38,-19.396 -21.917,-50.958c-0,-0 10.908,-1.338 16.925,19.008c1.55,5.233 7.425,7.863 12.3,5.408c3.325,-1.679 5.2,-5.258 4.729,-8.954c-1.808,-14.25 -8.975,-48.546 -36.475,-57.75l-36.812,11.254Z" style="fill:#f7a59c;fill-rule:nonzero;"/><path d="M630.292,1105.07c0,-0 71.346,100.475 71.725,98.529c0.375,-1.942 24.946,-141.067 24.946,-141.067l-86.571,-37.5l-10.1,80.038Z" style="fill:#ec8c87;fill-rule:nonzero;"/><path d="M828.53,780.367c3.041,-0.017 -176.325,3.195 -209.109,229.683l103.084,15.796l20.783,170.983l287.571,0l57.087,-315.916c0,-0 -40.583,-68.446 -158.883,-101.98l-100.533,1.434Z" style="fill:#11867b;fill-rule:nonzero;"/><path d="M740.859,807.746c-0,-0 25.346,33.65 129.208,33.65c102.9,-0 129.213,-35.413 129.213,-35.413c-0,0 -60.659,-33.891 -131.046,-44.854c-0,0 -62.854,11.196 -127.375,46.617Z" style="fill:#f7a59c;fill-rule:nonzero;"/><path d="M1093.77,1525.26l0.246,451.688l223.454,-0l17.171,-451.688l-240.871,0Z" style="fill:#2b5881;fill-rule:nonzero;"/><path d="M1578.94,1525.26l-0.242,451.688l-223.454,-0l-17.175,-451.688l240.871,0Z" style="fill:#2b5881;fill-rule:nonzero;"/><rect x="1225.86" y="1525.26" width="231.042" height="156.921" style="fill:#2b5881;fill-rule:nonzero;"/><path d="M1720.11,1131.08c13.854,153.058 -0.763,264.579 3.279,546.213l-133.367,5.587l-19.871,-527.175l149.959,-24.625Z" style="fill:#f7a59c;fill-rule:nonzero;"/><path d="M1586.59,1250.51c0,-0 82.592,-7.563 139.058,-44.809l-1.487,-32.779l-137.617,18.746l0.046,58.842Z" style="fill:#ec8c87;fill-rule:nonzero;"/><path d="M1454.1,778.679c0,0 262.334,65.971 309.863,398.95c-0,0 -128.392,55.663 -257.059,31.721l28.946,-111.371l-81.75,-319.3Z" style="fill:#b077b3;fill-rule:nonzero;"/><path d="M670.513,917.133l195.325,230.671l-59.771,168.329c0,0 -148.458,-206.404 -215.167,-365.941l79.613,-33.059Z" style="fill:#f7a59c;fill-rule:nonzero;"/><path d="M676.934,925.463c-0,-0 -68.588,38.745 -86.034,24.729c-30.487,-24.496 -55.683,-114.163 -55.683,-114.163c0,0 128.263,-48.354 127.058,-46.467c-1.208,1.892 14.659,135.901 14.659,135.901Z" style="fill:#f7a59c;fill-rule:nonzero;"/><path d="M676.934,925.463c-1.213,-6.909 25.433,-81.4 34.571,-109.334c2.2,-6.737 -2.442,-14.125 -9.759,-15.525c-4.758,-0.912 -12.3,-0.325 -15.862,6.504l-32.175,54.984l23.225,63.371Z" style="fill:#f7a59c;fill-rule:nonzero;"/><path d="M674.584,844.929l-22.088,-109.887c-1.312,-7.313 -8.658,-12.35 -15.987,-10.967c-6.346,1.2 -10.529,6.854 -9.784,13.213l9.63,81.825l38.229,25.816Z" style="fill:#f7a59c;fill-rule:nonzero;"/><path d="M630.659,804.4l-29.996,-78.471c-2.479,-6.871 -10.213,-10.679 -17.038,-8.391c-5.92,1.983 -9.245,7.95 -7.841,14.075l22.258,90.674l32.617,-17.887Z" style="fill:#f7a59c;fill-rule:nonzero;"/><path d="M598.425,827.538l-37.95,-77.105c-3.483,-7.158 -12.15,-10.479 -19.262,-7.383c-6.683,2.904 -9.642,10.475 -6.779,17.354l30.254,72.792l33.737,-5.658Z" style="fill:#f7a59c;fill-rule:nonzero;"/><path d="M535.217,836.029l-29.779,-47.237c-2.463,-5.554 -0.188,-11.788 5.208,-14.25c5.163,-2.359 11.542,-0.504 14.879,4.329l39.163,54.325l-29.471,2.833Z" style="fill:#f7a59c;fill-rule:nonzero;"/><path d="M668.58,836.675c-0,0 -44.721,-4.692 -49.313,54.908" style="fill:none;stroke:#2a282e;stroke-width:6.38px;stroke-linecap:round;stroke-linejoin:round;"/><path d="M766.455,1237.4c-0,0 36.733,127.142 109.941,110.238c73.208,-16.9 187.304,-173.259 187.304,-173.259l-25.537,-266.975l-205.471,252.888l-66.237,77.108Z" style="fill:#f7a59c;fill-rule:nonzero;"/><path d="M896.421,1081.74c0,-0 69.371,104.633 128.546,141.533l38.733,-48.896l-149.42,-115.587l-17.859,22.95Z" style="fill:#ec8c87;fill-rule:nonzero;"/><path d="M1199.93,772.908c0,0 -203.67,45.905 -312.204,282.609c0,-0 65.579,98.808 170.705,142.725l70.383,-86.229l71.116,-339.105Z" style="fill:#b077b3;fill-rule:nonzero;"/><path d="M1199.93,772.175c-79.562,40.808 -129.574,94.929 -129.574,94.929l15.695,691.917l501.363,-0l-1.621,-688.346c0,0 -63.2,-61.846 -131.696,-91.996c-58.175,-25.608 -197.612,-35.512 -254.167,-6.504Z" style="fill:#b077b3;fill-rule:nonzero;"/><path d="M1437.17,1109.33c-38.512,0 -69.737,-31.221 -69.737,-69.733l-0,-69.738l139.47,0l0,69.738c0,38.512 -31.22,69.733 -69.733,69.733Z" style="fill:none;stroke:#2a282e;stroke-width:5.82px;stroke-linecap:round;stroke-linejoin:round;"/><path d="M1586.59,1211.92l6.508,-226.346" style="fill:none;stroke:#2a282e;stroke-width:5.82px;stroke-linecap:round;stroke-linejoin:round;"/><path d="M1078.06,1174.2l-10.834,-196.204" style="fill:none;stroke:#2a282e;stroke-width:5.82px;stroke-linecap:round;stroke-linejoin:round;"/><path d="M1205.8,519.454l-20.895,-103.396c-1.176,-8.42 -4.446,-21.416 -0.442,-33.629c6.617,-20.204 30.946,-59.004 72.529,-41.241l8.988,40.937c-0,0 -43.184,8.717 -60.505,65.208l0.325,72.121Z" style="fill:#2a282e;fill-rule:nonzero;"/><path d="M1253.93,362.529c-0.755,13.588 -12.746,73.029 -54.905,94.688c0,-0 -36.925,-79.192 54.905,-94.688Z" style="fill:#2a282e;fill-rule:nonzero;"/><path d="M1401.82,753.138l0,-175.571l-161.85,-0l0,175.571l-48.179,21.962c-0,0 11.3,72.767 130.804,74.379c119.5,1.613 131.504,-70.8 131.504,-70.8l-52.279,-25.541Z" style="fill:#f7a59c;fill-rule:nonzero;"/><path d="M1256.99,341.188c0,-0 29.704,-78.355 121.3,-36.701c55.442,25.213 70.967,59.021 77.571,82.971c2.196,7.963 3.071,20.496 2.475,27.938l-22.158,104.058l-86.496,-143.966l-83.704,6.637l-8.988,-40.937Z" style="fill:#2a282e;fill-rule:nonzero;"/><path d="M1436.18,519.454c-0,0 10.916,-17.354 33.42,-8.821c22.505,8.538 12.325,63.192 -21.437,70.159c-0,-0 -12.1,2.641 -21.588,-5.646c0,-0 8.3,-40.371 9.605,-55.692Z" style="fill:#ec8c87;fill-rule:nonzero;"/><path d="M1465.14,529.917c-0,-0 -18.854,-6.292 -32.238,21.471" style="fill:none;stroke:#2a282e;stroke-width:5.82px;stroke-linecap:round;stroke-linejoin:round;"/><path d="M1205.8,519.454c0,0 -10.908,-17.354 -33.416,-8.821c-22.504,8.538 -12.325,63.192 21.433,70.159c0,-0 12.104,2.641 21.592,-5.646c-0,-0 -8.3,-40.371 -9.609,-55.692Z" style="fill:#ec8c87;fill-rule:nonzero;"/><path d="M1176.85,529.917c0,-0 18.85,-6.292 32.23,21.471" style="fill:none;stroke:#2a282e;stroke-width:5.82px;stroke-linecap:round;stroke-linejoin:round;"/><path d="M1438.43,467.588c0.012,32.949 -3.221,101.887 -23.475,142.8c-19.021,38.416 -50.479,59.087 -91.717,60.32c-41.242,1.23 -71.962,-14.662 -96.583,-64.52c-24.621,-49.859 -23.442,-137.988 -23.442,-137.988c0,0 0,-117.704 116.329,-117.704c122.525,-0 118.888,117.092 118.888,117.092Z" style="fill:#f7a59c;fill-rule:nonzero;"/><path d="M1241.18,630.758c-0,0 13.554,68.775 73.404,76.675c68.883,9.092 87.229,-74.925 87.229,-74.925c0,0 -30.437,38.142 -78.575,38.2c-53.687,0.067 -82.058,-39.95 -82.058,-39.95Z" style="fill:#2a282e;fill-rule:nonzero;"/><path d="M1312.53,516.454l-0,27.242c-0,1.171 0.225,2.292 0.633,3.317c1.617,4.037 6.258,5.97 10.458,4.854l9.029,-2.404" style="fill:none;stroke:#2a282e;stroke-width:5.82px;stroke-linecap:round;stroke-linejoin:round;"/><path d="M1278.17,503.446c0,5.85 -4.741,10.592 -10.587,10.592c-5.85,-0 -10.592,-4.742 -10.592,-10.592c0,-5.846 4.742,-10.592 10.592,-10.592c5.846,0 10.587,4.746 10.587,10.592Z" style="fill:#2a282e;fill-rule:nonzero;"/><path d="M1377.47,503.446c0,5.85 -4.746,10.592 -10.592,10.592c-5.85,-0 -10.591,-4.742 -10.591,-10.592c-0,-5.846 4.741,-10.592 10.591,-10.592c5.846,0 10.592,4.746 10.592,10.592Z" style="fill:#2a282e;fill-rule:nonzero;"/><path d="M1339.77,450.758l71.204,18.396c0,0 -3.237,-19.975 -32.366,-27.229c-29.13,-7.258 -38.838,8.833 -38.838,8.833Z" style="fill:#2a282e;fill-rule:nonzero;"/><path d="M1295.52,450.758l-71.204,18.396c0,0 3.238,-19.975 32.363,-27.229c29.133,-7.258 38.841,8.833 38.841,8.833Z" style="fill:#2a282e;fill-rule:nonzero;"/><path d="M1281.36,571.142c-0,-0 10.504,8.05 38.125,8.05c25.121,-0 40.812,-8.05 40.812,-8.05" style="fill:none;stroke:#2a282e;stroke-width:5.82px;stroke-linecap:round;stroke-linejoin:round;"/><path d="M1309.73,506.538c-0,24.854 -20.15,45.004 -45.004,45.004c-24.85,-0 -45,-20.15 -45,-45.004c-0,-24.85 20.15,-45 45,-45c24.854,-0 45.004,20.15 45.004,45Z" style="fill:none;stroke:#fff;stroke-width:8.13px;"/><path d="M1420.28,506.538c-0,24.854 -20.146,45.004 -45,45.004c-24.854,-0 -45.004,-20.15 -45.004,-45.004c-0,-24.85 20.15,-45 45.004,-45c24.854,-0 45,20.15 45,45Z" style="fill:none;stroke:#fff;stroke-width:8.13px;"/><path d="M1309.73,506.538c-0,-0 10.658,-9.946 20.546,-0" style="fill:none;stroke:#fff;stroke-width:8.13px;"/><path d="M1219.73,506.538l-15.088,-0.38" style="fill:none;stroke:#fff;stroke-width:8.13px;"/><path d="M1420.28,506.538l16.846,-0.271" style="fill:none;stroke:#fff;stroke-width:8.13px;"/><path d="M1241.18,365.221c-0,-0 21.612,61.396 119.125,59.512c66.266,-1.279 82.1,46.671 82.1,46.671c-0,0 -11.534,-107.196 -14.567,-106.183c-3.029,1.008 -100.829,-26.096 -100.829,-26.096l-85.829,26.096Z" style="fill:#2a282e;fill-rule:nonzero;"/></g></g></svg>