<?xml version="1.0" encoding="UTF-8" standalone="no"?><!DOCTYPE svg PUBLIC "-//W3C//DTD SVG 1.1//EN" "http://www.w3.org/Graphics/SVG/1.1/DTD/svg11.dtd"><svg width="100%" height="100%" viewBox="0 0 1884 1369" version="1.1" xmlns="http://www.w3.org/2000/svg" xmlns:xlink="http://www.w3.org/1999/xlink" xml:space="preserve" xmlns:serif="http://www.serif.com/" style="fill-rule:evenodd;clip-rule:evenodd;stroke-miterlimit:2;"><path d="M123.675,1351.23c-0,-0 -136.233,-320.692 36.062,-563.046c172.296,-242.35 67.213,-457.196 369.734,-671.079c388.837,-274.917 763.887,-3.671 875.729,180.233c111.838,183.904 491.712,90.025 381.313,613.313c-85.642,405.925 -21.742,423.729 -21.742,423.729l-1641.1,16.85Z" style="fill:#ede8f3;fill-rule:nonzero;"/><path d="M205.763,1264.48c-0,-0 -241.767,-126.313 -183.513,-410.33c58.254,-284.016 295.508,-351.408 393.075,-330.562c182.875,39.079 -115.904,154.383 -187.275,-43.525c-89.55,-248.317 229.746,-436.317 525.725,-387.663c190.221,31.267 282.042,122.325 451.133,179.546c168.488,57.013 239.154,-19.346 172.025,-63.6c-63.72,-42.012 -295.083,26.525 -215.646,120.467c108.771,128.629 370.909,-70.663 574.071,151.25c203.163,221.912 26.792,500.9 -129.395,524.166c-156.188,23.263 -87.7,-200.933 156.187,-23.266c243.892,177.671 -64.175,370.271 -64.175,370.271" style="fill:none;stroke:#b6bde0;stroke-width:4.17px;"/><path d="M1865.87,1369l-1848.1,0c-9.813,0 -17.767,-7.954 -17.767,-17.766c-0,-9.809 7.954,-17.763 17.767,-17.763l1865.87,0l0,17.763c0,9.812 -7.954,17.766 -17.762,17.766Z" style="fill:#5872b7;fill-rule:nonzero;"/><path d="M681.908,1369l-664.141,0c-9.813,0 -17.767,-7.954 -17.767,-17.766l-0,-17.763l699.671,0l-0,17.763c-0,9.812 -7.95,17.766 -17.763,17.766Z" style="fill:#24255b;fill-rule:nonzero;"/><path d="M958,656.283c-79.142,152.087 -168.067,214.041 -168.067,214.041l76.796,122.609l134.104,-139.354l-42.833,-197.296Z" style="fill:#24255b;fill-rule:nonzero;"/><path d="M1154.23,619.983l-196.233,36.3c-12.429,371.267 -17.088,677.137 -17.088,677.137l352.226,0c-0,0 10.224,-568.512 -46.438,-692.554l-92.467,-20.883Z" style="fill:#24255b;fill-rule:nonzero;"/><path d="M1131.45,809.179l95.6,-8.084" style="fill:none;stroke:#5872b7;stroke-width:16.67px;"/><path d="M1087.56,729.387c0,-0 60.68,414.071 7.884,581.612" style="fill:none;stroke:#5872b7;stroke-width:4.17px;"/><path d="M1024.03,936.795c0,0 58.608,23.592 134.592,26.088c75.979,2.496 28.704,42.925 -83.938,35.258" style="fill:none;stroke:#5872b7;stroke-width:4.17px;"/><path d="M1039.13,604.887l48.429,128.667l66.671,-113.571l-43.941,-71.804l-71.159,56.708Z" style="fill:#f79d90;fill-rule:nonzero;"/><path d="M1087.56,733.554l90.405,-24.959l-23.734,-88.612l-66.671,113.571Z" style="fill:#5872b7;fill-rule:nonzero;"/><path d="M1049.9,633.474l-49.063,54.805l86.729,45.275l-37.666,-100.08Z" style="fill:#5872b7;fill-rule:nonzero;"/><path d="M866.729,992.933c0,-0 28.654,-59.75 -32.875,-136.717c-34.117,-42.679 -49.833,-116.325 -49.833,-116.325l-51.263,7.796l46.938,245.246l87.033,-0Z" style="fill:#f79d90;fill-rule:nonzero;"/><path d="M722.283,662.991l-20.987,19.079l28.054,24.767l-87.854,-1.496l-1.883,30.146l93.145,12.2l51.263,-7.796l-61.738,-76.9Z" style="fill:#f79d90;fill-rule:nonzero;"/><path d="M737.642,709.941l-84.3,-34.766l-5.442,14.975l70.358,29.566l19.384,-9.775Z" style="fill:#f79d90;fill-rule:nonzero;"/><path d="M1246.7,640.866c-0,0 113.233,64.475 148.996,305.979l-131.375,31.7l-17.621,-337.679Z" style="fill:#24255b;fill-rule:nonzero;"/><path d="M1000.77,447.654l-42.767,109.433l32.704,10.062l10.063,61.638l104.408,-23.9l15.092,-167.296l-119.5,10.063Z" style="fill:#f79d90;fill-rule:nonzero;"/><path d="M1070.45,473.658l-79.838,-0l8.705,-23.592l71.133,-4.4l-0,27.992Z" style="fill:#f37c84;fill-rule:nonzero;"/><path d="M1112.17,523.583c-0,-0 -50.942,-10.538 -50.942,-63.234c0,0 -75.579,10.288 -101.671,-30.737c-30.908,-48.596 16.321,-104.442 55.329,-93.096c0,0 -24.579,24.363 12.75,27.225c26.617,2.046 75.267,-33.371 92.634,0.879c-0,0 133.991,30.604 33.966,155.45l-42.066,3.513Z" style="fill:#202156;fill-rule:nonzero;"/><path d="M1061.22,456.183c0,-0 -101.025,19.521 -122.158,-52.925c-12.35,-42.359 30.096,-66.479 30.096,-66.479" style="fill:none;stroke:#202156;stroke-width:8.33px;"/><path d="M1056.47,518.758c-1.821,20.983 -20.309,36.521 -41.292,34.7c-20.987,-1.821 -36.521,-20.308 -34.7,-41.296c1.821,-20.983 20.309,-36.517 41.296,-34.696c20.983,1.821 36.517,20.308 34.696,41.292Z" style="fill:none;stroke:#202156;stroke-width:2.08px;"/><path d="M1054.56,503.12l54.317,2.975" style="fill:none;stroke:#202156;stroke-width:2.08px;"/><path d="M1177.97,533.187c-0,23.621 -31.65,42.771 -55.267,42.771c-23.621,-0 -30.271,-19.15 -30.271,-42.771c0,-23.617 19.15,-42.767 42.771,-42.767c23.617,0 42.767,19.15 42.767,42.767Z" style="fill:#f79d90;fill-rule:nonzero;"/><path d="M1380.02,950.633l-0,197.212l-98.342,0l-8.183,-171.512l106.525,-25.7Z" style="fill:#f79d90;fill-rule:nonzero;"/><path d="M950.342,906.041l4.129,-137.412l-63.7,199.325l59.571,-61.913Z" style="fill:#23245a;fill-rule:nonzero;"/><path d="M1044.2,617.974l60.979,-13.087l-49.992,42.637l-10.987,-29.55Z" style="fill:#f37c84;fill-rule:nonzero;"/><path d="M1015.44,517.962c0,8.408 -3.27,15.225 -7.304,15.225c-4.033,-0 -7.3,-6.817 -7.3,-15.225c0,-8.408 3.267,-15.225 7.3,-15.225c4.034,0 7.304,6.817 7.304,15.225Z" style="fill:#202156;fill-rule:nonzero;"/><path d="M1027.95,480.937c0,-20.4 -16.242,-6.671 -16.242,-6.671l16.242,6.671Z" style="fill:#202156;fill-rule:nonzero;"/><path d="M1011.71,571.249l23.234,-6.183c-0,0 9.946,86.158 -23.234,6.183Z" style="fill:#fff;fill-rule:nonzero;"/><path d="M511.138,957.429c-0,-0 156.72,-24.246 159.795,249.046c0.5,44.35 28.738,126.991 28.738,126.991l-142.025,0l-46.508,-376.037Z" style="fill:#494ea1;fill-rule:nonzero;"/><path d="M347.267,933.183l-94.725,22.358l28.9,377.925l368.554,0c-0,0 -12.363,-299.008 -151.346,-388.717l-151.383,-11.566Z" style="fill:#5753a3;fill-rule:nonzero;"/><path d="M252.542,955.541c-97.63,22.267 -74.775,97.2 -55.925,251.075c-48.73,39.575 -1.98,57.392 -1.98,57.392c-53.516,56.725 13.246,69.458 13.246,69.458l178.225,0c0,0 -35.862,-400.208 -133.566,-377.925Z" style="fill:#5753a3;fill-rule:nonzero;"/><path d="M375.512,1246.17l-42.77,-196.33" style="fill:none;stroke:#494ea1;stroke-width:4.17px;"/><path d="M207.883,1333.47c0,0 30.088,-69.087 125.196,-103.816c78.854,-28.801 194.2,45.954 268.038,-25.076l13.675,79.971l-228.684,48.921l-178.225,0Z" style="fill:#f79d90;fill-rule:nonzero;"/><path d="M521.392,738.541l70.508,107.325l-45.242,16.15l-7.825,87.221l-135.975,-47.242l12.813,-177.412l105.721,13.958Z" style="fill:#f79d90;fill-rule:nonzero;"/><path d="M416.771,851.279l-69.504,81.904l89.133,109.233l40.2,-127.583l-59.829,-63.554Z" style="fill:#f37c84;fill-rule:nonzero;"/><path d="M440.012,800.566l99.459,-34.504l-18.079,-27.521l-98.25,10.225l16.87,51.8Z" style="fill:#f37c84;fill-rule:nonzero;"/><path d="M431.425,838.158c0,-0 30.112,60.291 9.162,-55.921c0,0 28.575,3.212 50.95,-34.504c0,-0 -6.954,61.454 58.692,-0c65.646,-61.458 -17.808,-109.542 -119.779,-91.45c-88.388,15.683 -176.842,65.621 -47.563,234.929l48.538,-53.054Z" style="fill:#202156;fill-rule:nonzero;"/><path d="M415.325,862.133c-6.783,9.096 -18.438,17.35 -30.554,19.112c-24.234,3.534 -47.9,-15.6 -51.434,-39.829c-3.525,-24.237 8.713,-36.821 32.946,-40.35c13.617,-1.983 29.392,2.059 41.221,10.275c3.575,4.458 7.821,50.792 7.821,50.792Z" style="fill:#f79d90;fill-rule:nonzero;"/><path d="M513.783,811.82c2.246,8.284 1.125,15.796 -2.504,16.784c-3.629,0.983 -8.391,-4.934 -10.642,-13.213c-2.245,-8.283 -1.125,-15.796 2.505,-16.783c3.625,-0.979 8.391,4.933 10.641,13.212Z" style="fill:#202156;fill-rule:nonzero;"/><path d="M483.683,792.57c0,0 -3.533,-19.929 14.967,-10.333l-14.967,10.333Z" style="fill:#202156;fill-rule:nonzero;"/><path d="M336.138,936.537l16.137,-18.533l-5.921,-13.742l36.533,-13.05l104.788,52.696l3.862,40.242l-17.733,-5.605l-28.95,107.909l-108.716,-149.917Z" style="fill:#5753a3;fill-rule:nonzero;"/><path d="M430.767,962.883l60.77,21.267l-3.862,-40.242" style="fill:none;stroke:#494ea1;stroke-width:4.17px;"/><path d="M440.587,782.237c0,0 12.226,71.15 30.105,85.779c5.87,4.804 16.983,-7.421 68.141,-8.446c31.284,-0.625 31.254,108.563 -10.254,105.429c-41.508,-3.129 -104.591,-29.008 -114.037,-108.591c-8.296,-69.808 26.045,-74.171 26.045,-74.171Z" style="fill:#202156;fill-rule:nonzero;"/><path d="M491.537,881.245c0,0 10.551,19.646 31.346,6.342" style="fill:none;stroke:#babfbe;stroke-width:4.17px;"/><path d="M728.75,1288.53l-349.867,-0l0,25.925c0,10.496 8.513,19.008 19.013,19.008l330.854,0c10.5,0 19.012,-8.512 19.012,-19.008l0,-6.913c0,-10.5 -8.512,-19.012 -19.012,-19.012Z" style="fill:#24255b;fill-rule:nonzero;"/><path d="M1012.9,1028.68l-406.983,-0c-12.096,-0 -22.309,8.987 -23.838,20.987l-32.788,256.721c-1.837,14.367 9.359,27.079 23.838,27.079l406.983,0c12.096,0 22.309,-8.992 23.842,-20.992l32.787,-256.72c1.834,-14.363 -9.358,-27.075 -23.841,-27.075Z" style="fill:#24255b;fill-rule:nonzero;"/><path d="M1032.59,1028.68l-406.984,-0c-12.091,-0 -22.304,8.987 -23.837,20.987l-32.788,256.721c-1.833,14.367 9.359,27.079 23.842,27.079l406.983,0c12.092,0 22.304,-8.992 23.838,-20.992l32.787,-256.72c1.834,-14.363 -9.358,-27.075 -23.841,-27.075Z" style="fill:#5872b7;fill-rule:nonzero;"/><path d="M852.85,1181.07c-2.333,22.171 -22.192,40.142 -44.362,40.142c-22.167,-0 -38.251,-17.971 -35.921,-40.142c2.333,-22.166 22.191,-40.137 44.358,-40.137c22.171,-0 38.254,17.971 35.925,40.137Z" style="fill:#fff;fill-rule:nonzero;"/><path d="M1023.72,1331.29l-506.588,0" style="fill:none;stroke:#24255b;stroke-width:4.17px;"/><path d="M1247.6,987.733l168.167,3.191l-38.121,-205.724l-89.425,10.12c-0,0 -40.279,59.455 -8.471,105.679c35.888,52.155 -35.846,54.101 -32.15,86.734Z" style="fill:#202156;fill-rule:nonzero;"/><path d="M1288.22,795.32c-0,0 -40.279,59.455 -8.471,105.679c35.888,52.155 -35.846,54.101 -32.15,86.734" style="fill:none;stroke:#5f74b8;stroke-width:8.33px;"/><path d="M1321.77,962.883c-0,-0 -76.517,75.087 -116.863,358.037l85.175,0l31.688,-358.037Z" style="fill:#5f74b8;fill-rule:nonzero;"/><path d="M1524,941.97l-33.3,378.95l-247.383,0l30.795,-144.733c0,-0 -94.183,-49.138 47.663,-213.304l35.254,-18.134l153.167,-11.566l13.804,8.787Z" style="fill:#b6bde0;fill-rule:nonzero;"/><path d="M1321.77,1132.48c-0,-0 -14.829,25.404 -0.575,45.791l-20.992,142.646" style="fill:none;stroke:#5f74b8;stroke-width:4.17px;"/><path d="M1287.2,1176.84l143.287,4.229" style="fill:none;stroke:#5f74b8;stroke-width:4.17px;"/><path d="M1458.73,1248.17l-15.154,-182.267" style="fill:none;stroke:#5f74b8;stroke-width:4.17px;"/><path d="M1524,941.97c-0,0 13.662,17.188 29.479,57.042c22.425,56.512 49.171,158.604 47.417,321.908l-110.196,0l33.3,-378.95Z" style="fill:#b6bde0;fill-rule:nonzero;"/><path d="M1600.89,1333.42c-0,0 -55.059,-125.916 -193.546,-89.883c-151.208,39.346 -207.359,31.992 -207.359,31.992l-11.462,57.891l412.367,0Z" style="fill:#f79d90;fill-rule:nonzero;"/><path d="M1456.75,1217.07l-49.137,10.992l111.612,105.354l105.204,0c0,0 -45.341,-109.941 -167.679,-116.346Z" style="fill:#5f74b8;fill-rule:nonzero;"/><path d="M1459.79,1249.75l23.404,-7.15" style="fill:none;stroke:#b6bde0;stroke-width:4.17px;"/><path d="M1199.99,1275.53l-71.854,-14.854l-51.504,72.745l111.896,0l11.462,-57.891Z" style="fill:#f79d90;fill-rule:nonzero;"/><path d="M1321.77,1132.48l133.516,-133.517l-24.804,-11.712l93.513,-45.284l-42.942,-27.329l-99.942,0l-59.341,74.175l16.396,4.117l-16.396,11.5l-0,128.05Z" style="fill:#5f74b8;fill-rule:nonzero;"/><path d="M1415.12,960.029l43.616,-30.142l-47.083,-105.275l-72.979,45.833l20.558,87.33l-37.458,174.708l93.346,-172.454Z" style="fill:#f79d90;fill-rule:nonzero;"/><path d="M1344.54,895.387l51.216,-26.704l-45.725,50.025l-5.491,-23.321Z" style="fill:#f37c84;fill-rule:nonzero;"/><path d="M1250.98,742.97l-22.362,123.946l33.545,0l37.667,51.792l95.929,-50.025l-67.091,-149.492l-77.688,23.779Z" style="fill:#f79d90;fill-rule:nonzero;"/><path d="M1245.56,773.029l-2.245,13.608l88.47,-12.067l-1.354,-16.954l-84.871,15.413Z" style="fill:#f37c84;fill-rule:nonzero;"/><path d="M1495.51,733.554c-22.145,-60.034 -49.221,-83.175 -49.225,-83.18c-54.275,-53.933 -147.046,5.909 -147.046,5.909c-118.879,-28.775 -70.62,118.821 -70.62,118.821l96.812,-11.875c13.538,81.212 61.954,40.091 61.954,40.091l22.575,40.725c0.005,0 -22.779,20.134 0.967,54.65c19.558,28.417 -27.267,38.1 -15.167,68.354l187.138,-38.791c-0,-123.121 -47.363,-86.204 -87.388,-194.704Z" style="fill:#202156;fill-rule:nonzero;"/><path d="M1221.03,776.058c0,-0 -17.121,-84.267 14.329,-111.688c16.4,-14.304 68.046,-8.087 68.046,-8.087" style="fill:none;stroke:#5f74b8;stroke-width:8.33px;"/><path d="M1595.15,924.724c0,0 14.946,-56.041 -66.483,-119.587" style="fill:none;stroke:#202156;stroke-width:8.33px;"/><path d="M1430.48,808.945c0,22.267 -18.05,40.317 -40.316,40.317c-22.263,0 -40.313,-18.05 -40.313,-40.317c0,-22.266 18.05,-40.316 40.313,-40.316c22.266,-0 40.316,18.05 40.316,40.316Z" style="fill:#f79d90;fill-rule:nonzero;"/><path d="M1287.2,862.354l24.992,-6.138c-0,0 8.77,71.279 -24.992,6.138Z" style="fill:#fff;fill-rule:nonzero;"/><path d="M1266.38,820.233c0,-0 7.959,-48.483 25.359,-0" style="fill:none;stroke:#24255b;stroke-width:2.08px;"/><path d="M1272.53,783.354c-0,-0 9.688,-16.409 21.171,-0l-21.171,-0Z" style="fill:#202156;fill-rule:nonzero;"/><path d="M896.467,346.6c-14.496,-40.325 -60.084,-60.521 -100.042,-43.288c-34.392,14.833 -52.617,53.842 -41.95,89.742c5.963,20.07 19.429,35.595 36.292,44.654c15.562,8.354 28.925,20.283 38.716,34.991l2.821,4.242l55.988,-20.129l-0.521,-5.046c-1.846,-17.866 1.279,-35.746 7.883,-52.446c6.446,-16.304 7.213,-34.929 0.813,-52.72Z" style="fill:#b6bde0;fill-rule:nonzero;"/><path d="M896.467,346.6c-14.496,-40.325 -60.084,-60.521 -100.042,-43.288c-34.392,14.833 -52.617,53.842 -41.95,89.742c5.963,20.07 19.429,35.595 36.292,44.654c15.562,8.354 28.925,20.283 38.716,34.991l2.821,4.242l55.988,-20.129l-0.521,-5.046c-1.846,-17.866 1.279,-35.746 7.883,-52.446c6.446,-16.304 7.213,-34.929 0.813,-52.72Z" style="fill:#b6bde0;fill-rule:nonzero;"/><path d="M845.117,460.433l-44.629,-62.942c-0,0 0.812,-12.746 14.82,-10.725c14.009,2.017 22.371,24.125 12.371,20.558c-9.996,-3.566 -13.529,-29.554 5.383,-33.516c18.917,-3.963 25.234,39.008 14.784,30.729c-10.446,-8.283 -8.246,-35.638 12.012,-35.867l11.884,90.779" style="fill:none;stroke:#fff;stroke-width:4.17px;"/><path d="M886.992,499.833l-26.288,9.45c-10,3.596 -21.017,-1.596 -24.608,-11.592l-5.559,-15.454c-3.595,-10 1.596,-21.017 11.592,-24.612l26.292,-9.45c9.996,-3.596 21.012,1.595 24.608,11.591l5.558,15.454c3.592,10 -1.595,21.017 -11.595,24.613Z" style="fill:#202156;fill-rule:nonzero;"/><path d="M907.137,472.804l-79.179,28.466l-13.896,-38.65l79.18,-28.466l13.895,38.65Z" style="fill:#5872b7;fill-rule:nonzero;"/><path d="M824.246,278.07l-7.9,-45.287" style="fill:none;stroke:#b6bde0;stroke-width:4.17px;"/><path d="M767.187,305.045l-37.825,-36.946" style="fill:none;stroke:#b6bde0;stroke-width:4.17px;"/><path d="M727.767,372.162l-43.154,3.087" style="fill:none;stroke:#b6bde0;stroke-width:4.17px;"/><path d="M886.454,302.887l19.429,-36.021" style="fill:none;stroke:#b6bde0;stroke-width:4.17px;"/><path d="M1494.12,635.587l267.621,0c9.304,0 18.216,-7.546 19.904,-16.85l27.65,-152.571c1.688,-9.308 -4.487,-16.85 -13.792,-16.85l-267.62,0c-9.305,0 -18.217,7.542 -19.905,16.85l-27.65,152.571c-1.691,9.304 4.488,16.85 13.792,16.85Z" style="fill:#23245a;fill-rule:nonzero;"/><path d="M1680.47,542.45c-1.75,9.666 4.666,17.499 14.329,17.499c9.667,0 18.921,-7.833 20.671,-17.499c1.754,-9.663 -4.663,-17.496 -14.325,-17.496c-9.667,-0 -18.921,7.833 -20.675,17.496Z" style="fill:#fff;fill-rule:nonzero;"/><path d="M1627.32,542.45c-1.75,9.666 4.662,17.499 14.329,17.499c9.662,0 18.921,-7.833 20.671,-17.499c1.75,-9.663 -4.663,-17.496 -14.329,-17.496c-9.663,-0 -18.921,7.833 -20.671,17.496Z" style="fill:#fff;fill-rule:nonzero;"/><path d="M1574.16,542.45c-1.75,9.666 4.663,17.499 14.33,17.499c9.666,0 18.92,-7.833 20.67,-17.499c1.755,-9.663 -4.662,-17.496 -14.325,-17.496c-9.666,-0 -18.92,7.833 -20.675,17.496Z" style="fill:#fff;fill-rule:nonzero;"/><path d="M1638.15,625.554l-92.987,55.262l16.666,-59.621l76.321,4.359Z" style="fill:#23245a;fill-rule:nonzero;"/><path d="M631.996,612.97l-267.617,0c-9.304,0 -18.216,-7.541 -19.904,-16.85l-27.654,-152.571c-1.688,-9.304 4.491,-16.849 13.796,-16.849l267.62,-0c9.305,-0 18.217,7.545 19.9,16.849l27.655,152.571c1.687,9.309 -4.488,16.85 -13.796,16.85Z" style="fill:#b6bde0;fill-rule:nonzero;"/><path d="M445.65,519.837c1.75,9.663 -4.662,17.496 -14.325,17.496c-9.667,-0 -18.921,-7.833 -20.675,-17.496c-1.75,-9.667 4.663,-17.504 14.325,-17.504c9.667,-0 18.925,7.837 20.675,17.504Z" style="fill:#fff;fill-rule:nonzero;"/><path d="M498.808,519.837c1.75,9.663 -4.662,17.496 -14.329,17.496c-9.662,-0 -18.921,-7.833 -20.671,-17.496c-1.754,-9.667 4.663,-17.504 14.325,-17.504c9.667,-0 18.921,7.837 20.675,17.504Z" style="fill:#fff;fill-rule:nonzero;"/><path d="M551.963,519.837c1.754,9.663 -4.663,17.496 -14.325,17.496c-9.667,-0 -18.921,-7.833 -20.676,-17.496c-1.75,-9.667 4.663,-17.504 14.33,-17.504c9.666,-0 18.92,7.837 20.671,17.504Z" style="fill:#fff;fill-rule:nonzero;"/><path d="M536.529,602.937l14.675,53.346l59.371,-57.079l-74.046,3.733Z" style="fill:#b6bde0;fill-rule:nonzero;"/></svg>