<?xml version="1.0" encoding="UTF-8" standalone="no"?><!DOCTYPE svg PUBLIC "-//W3C//DTD SVG 1.1//EN" "http://www.w3.org/Graphics/SVG/1.1/DTD/svg11.dtd"><svg width="100%" height="100%" viewBox="0 0 534 534" version="1.1" xmlns="http://www.w3.org/2000/svg" xmlns:xlink="http://www.w3.org/1999/xlink" xml:space="preserve" xmlns:serif="http://www.serif.com/" style="fill-rule:evenodd;clip-rule:evenodd;stroke-linecap:round;stroke-linejoin:round;stroke-miterlimit:1.5;"><g><ellipse cx="194.929" cy="275.082" rx="162.789" ry="159.303" style="fill:#ebebeb;fill-opacity:0;stroke:#cbcbcb;stroke-width:4.32px;"/><g><path d="M306.136,291.979l-12.506,-37.664l-24.787,-74.648c-1.273,-3.838 -6.827,-3.838 -8.1,0l-24.786,74.648l-82.299,-0l-24.785,-74.648c-1.275,-3.838 -6.828,-3.838 -8.103,0l-24.783,74.65l-12.508,37.662c-1.138,3.426 0.115,7.204 3.094,9.322l108.235,76.95l108.233,-76.951c2.977,-2.119 4.23,-5.896 3.094,-9.321" style="fill:#fc6d26;fill-rule:nonzero;"/><path d="M194.808,378.251l41.149,-123.934l-82.299,-0l41.15,123.932l-0,0.002Z" style="fill:#e24329;fill-rule:nonzero;"/><path d="M194.808,378.251l-41.15,-123.934l-57.671,-0l98.821,123.932l-0,0.002Z" style="fill:#fc6d26;fill-rule:nonzero;"/><path d="M95.987,254.315l-12.51,37.664c-1.138,3.425 0.116,7.203 3.094,9.321l108.237,76.951l-98.821,-123.934l0,-0.002Z" style="fill:#fca326;fill-rule:nonzero;"/><path d="M95.987,254.315l57.671,-0l-24.785,-74.648c-1.275,-3.838 -6.828,-3.838 -8.103,0l-24.783,74.65l0,-0.002Z" style="fill:#e24329;fill-rule:nonzero;"/><path d="M194.808,378.251l41.149,-123.934l57.673,-0l-98.822,123.932l-0,0.002Z" style="fill:#fc6d26;fill-rule:nonzero;"/><path d="M293.628,254.315l12.508,37.664c1.139,3.425 -0.115,7.203 -3.093,9.321l-108.235,76.951l98.82,-123.934l0,-0.002Z" style="fill:#fca326;fill-rule:nonzero;"/><path d="M293.628,254.315l-57.669,-0l24.785,-74.646c1.275,-3.838 6.828,-3.838 8.103,-0l24.785,74.648l-0.004,-0.002Z" style="fill:#e24329;fill-rule:nonzero;"/></g></g><path d="M505.871,259.335l16.031,-0.004l-54.162,73.567l-54.248,-73.538l14.11,-0.004l39.166,53.092l39.103,-53.113Z" style="fill:#ebebeb;"/></svg>