<?xml version="1.0" encoding="UTF-8" standalone="no"?><!DOCTYPE svg PUBLIC "-//W3C//DTD SVG 1.1//EN" "http://www.w3.org/Graphics/SVG/1.1/DTD/svg11.dtd"><svg width="100%" height="100%" viewBox="0 0 1633 1675" version="1.1" xmlns="http://www.w3.org/2000/svg" xmlns:xlink="http://www.w3.org/1999/xlink" xml:space="preserve" xmlns:serif="http://www.serif.com/" style="fill-rule:evenodd;clip-rule:evenodd;stroke-linejoin:round;stroke-miterlimit:2;"><g id="_1"><path d="M1425.33,1116.67l-854.708,-0c-29.107,0.047 -54.58,-20.245 -61.042,-48.625l-143.916,-627c-1.056,-4.592 -1.589,-9.289 -1.589,-14c0,-34.287 28.214,-62.5 62.5,-62.5c0.002,-0 0.004,-0 0.005,-0l1142.79,-0c0.043,-0 0.087,-0 0.13,-0c34.286,-0 62.5,28.213 62.5,62.5c-0,4.711 -0.533,9.408 -1.588,14l-144.167,627c-6.451,28.335 -31.856,48.614 -60.917,48.625Zm-804.958,-125l755.208,-0l115.292,-502l-985.833,-0l115.333,502Z" style="fill:#cbcbcb;fill-rule:nonzero;"/><path d="M692.917,1675c-131.386,0 -239.5,-108.114 -239.5,-239.5c-0,-131.386 108.114,-239.5 239.5,-239.5c131.385,0 239.5,108.114 239.5,239.5c-0.137,131.334 -108.166,239.363 -239.5,239.5Zm-0,-353.958c-62.813,-0 -114.5,51.687 -114.5,114.5c-0,62.813 51.687,114.5 114.5,114.5c62.813,-0 114.5,-51.687 114.5,-114.5c-0,-0.014 -0,-0.028 -0,-0.042c-0.069,-62.78 -51.72,-114.413 -114.5,-114.458Z" style="fill:#cbcbcb;fill-rule:nonzero;"/><path d="M1303,1675c-131.386,0 -239.5,-108.114 -239.5,-239.5c0,-131.386 108.114,-239.5 239.5,-239.5c131.386,0 239.5,108.114 239.5,239.5c-0.137,131.334 -108.166,239.363 -239.5,239.5Zm0,-353.958c-62.813,-0 -114.5,51.687 -114.5,114.5c0,62.813 51.687,114.5 114.5,114.5c62.813,-0 114.5,-51.687 114.5,-114.5c0,-0.014 0,-0.028 0,-0.042c-0.068,-62.78 -51.72,-114.413 -114.5,-114.458Z" style="fill:#cbcbcb;fill-rule:nonzero;"/><path d="M426.583,489.542c-26.836,-0.003 -50.811,-17.289 -59.291,-42.75l-107.125,-321.792l-197.667,0c-34.286,0 -62.5,-28.214 -62.5,-62.5c-0,-34.286 28.214,-62.5 62.5,-62.5l242.917,0c26.836,0.002 50.811,17.289 59.291,42.75l121.375,364.542c2.121,6.368 3.203,13.037 3.203,19.75c-0,34.284 -28.21,62.496 -62.494,62.5l-0.209,-0Z" style="fill:#cbcbcb;fill-rule:nonzero;"/></g></svg>