<?xml version="1.0" encoding="UTF-8" standalone="no"?><!DOCTYPE svg PUBLIC "-//W3C//DTD SVG 1.1//EN" "http://www.w3.org/Graphics/SVG/1.1/DTD/svg11.dtd"><svg width="100%" height="100%" viewBox="0 0 267 234" version="1.1" xmlns="http://www.w3.org/2000/svg" xmlns:xlink="http://www.w3.org/1999/xlink" xml:space="preserve" xmlns:serif="http://www.serif.com/" style="fill-rule:evenodd;clip-rule:evenodd;stroke-linejoin:round;stroke-miterlimit:2;"><g><g><path d="M258.333,66.667c0.234,0.77 0,-0.071 0,-0Zm0,41.666l0,-41.666c0,-4.605 -3.729,-8.334 -8.333,-8.334l0,-54.166c0,-2.3 -1.867,-4.167 -4.167,-4.167l-212.5,0c-18.408,0 -33.333,14.925 -33.333,33.333c-0,1.125 0.058,2.238 0.167,3.334c-0.059,0.279 -0.167,0.537 -0.167,0.833l-0,162.5c-0,18.408 14.925,33.333 33.333,33.333l216.667,0c4.604,0 8.333,-3.729 8.333,-8.333l0,-41.667c4.604,0 8.334,-3.729 8.334,-8.333l-0,-58.333c-0,-4.604 -3.734,-8.334 -8.334,-8.334Zm-225,-100l208.334,0l-0,50l-8.334,0l0,-33.333c0,-4.604 -3.733,-8.333 -8.333,-8.333l-191.667,-0c-4.604,-0 -8.333,3.729 -8.333,8.333l-0,31.879c-9.704,-3.433 -16.667,-12.666 -16.667,-23.546c0,-13.808 11.192,-25 25,-25Zm0,25l0,-8.333l191.667,-0l0,8.333l-191.667,0Zm191.667,8.334l0,16.666l-191.667,0l0,-16.666l191.667,-0Zm25,183.333l-216.667,0c-13.808,0 -25,-11.192 -25,-25l0,-144.671c6.109,6.938 15.029,11.338 25,11.338l216.667,-0l0,41.666l-20.833,0c-20.713,0 -37.5,16.788 -37.5,37.5c-0,20.713 16.787,37.5 37.5,37.5l20.833,0l0,41.667Zm8.333,-50l-29.166,0c-16.109,0 -29.167,-13.058 -29.167,-29.167c-0,-16.108 13.058,-29.166 29.167,-29.166l29.166,-0l0,58.333Zm-41.666,-29.167c-0,6.905 5.595,12.5 12.5,12.5c6.904,0 12.5,-5.595 12.5,-12.5c-0,-6.904 -5.596,-12.5 -12.5,-12.5c-6.905,0 -12.5,5.596 -12.5,12.5Zm16.666,0c0,2.3 -1.866,4.167 -4.166,4.167c-2.3,0 -4.167,-1.867 -4.167,-4.167c0,-2.3 1.867,-4.166 4.167,-4.166c2.3,-0 4.166,1.866 4.166,4.166Z" style="fill:#cbcbcb;fill-rule:nonzero;"/></g></g></svg>